<?xml version="1.0" encoding="UTF-8"?>
<svg id="Capa_1" data-name="Capa 1" xmlns="http://www.w3.org/2000/svg" viewBox="0 0 900 873">
  <defs>
    <style>
      .cls-1 {
        opacity: .18;
      }

      .cls-2 {
        fill: #ad7c3b;
      }

      .cls-3 {
        fill: #e1aa30;
      }
    </style>
  </defs>
  <g class="cls-1">
    <path class="cls-3" d="M445.7,20.69c139.21-1.03,252.58,50.71,357.51,123.52,34.94,24.25,64.82,57.32,33.41,102.39-33.87,48.6-73.81,31.51-113.46,3.93-150.23-104.52-306.48-140.88-475.6-41.34-53.98,31.77-71.89,57.8-10.57,104.88,75.59,58.02,143.08,126.21,215.51,188.37,37.19,31.92,61.95,68.24,26.83,111.2-37.21,45.52-76.69,23.34-112.89-8.97-101.75-90.79-203.14-182.02-306.85-270.6-57.44-49.06-54.13-90.91-1.51-141.74C168.43,85.76,293.63,16.37,445.7,20.69Z"/>
    <path class="cls-2" d="M448.06,852.5c-134.91-3.39-258.93-54.64-368.54-142.9-30.59-24.63-34.08-66.71-10.33-94.61,24.76-29.07,63.25-32.06,94.94-7.02,68.02,53.74,143.45,91.42,229.48,106.23,106.54,18.34,201.22-10.03,286.95-73.17,9.92-7.3,19.08-15.64,29.08-22.83,8.78-6.31,7.44-10.44-.2-17.2-80.38-71.13-160.43-142.65-240.57-214.05-14.19-12.64-28.3-25.38-42.61-37.89-28.9-25.29-32.39-66.34-7.95-95.16,23.56-27.79,66.42-30.23,95.17-4.72,75.69,67.14,151.13,134.57,226.67,201.89,39.49,35.2,79.38,69.97,118.33,105.75,29.48,27.09,32.19,65.53,5.74,94.84-75.62,83.8-163.85,149.07-273.8,181.36-44.14,12.96-89.28,18.73-142.34,19.49Z"/>
  </g>
</svg>