<?xml version="1.0" encoding="UTF-8"?>
<svg id="Capa_1" data-name="Capa 1" xmlns="http://www.w3.org/2000/svg" viewBox="0 0 800 800">
  <defs>
    <style>
      .cls-1 {
        fill: #fff;
      }

      .cls-2 {
        fill: #002c41;
      }

      .cls-3 {
        fill: #ffc000;
      }
    </style>
  </defs>
  <path class="cls-2" d="M683.73,399.9c2.85-12.31,4.3-24.91,4.31-37.55,0-95.85-81.28-173.56-181.54-173.56-68.96,0-128.92,36.76-159.67,90.9-19.15-10.06-40.47-15.29-62.11-15.25-71.15,0-128.82,55.14-128.82,123.16,0,1.79.06,3.58.14,5.35h-.42c-60.74,0-109.97,47.07-109.97,105.14s49.24,105.14,109.97,105.14h488.75c60.74,0,109.97-47.08,109.97-105.14.02-44.81-29.31-83.05-70.62-98.19Z"/>
  <path class="cls-1" d="M521.53,441.41c-2.53-18.07-18.37-31.83-36.42-32.29,7.1-47.37-21.92-89.82-73.03-95.58-59.8-6.74-101.94,40.09-93.19,95.58-18.05.46-33.89,14.22-36.42,32.29-5.95,42.45,4.1,96.65-.17,140.38,2.3,18.17,15.4,29.08,33.82,30.89,54.7-2.98,113.88,4.04,168.03.1,20.66-1.5,34.47-10.12,37.57-30.99-4.27-43.72,5.78-97.93-.17-140.38Z"/>
  <path class="cls-3" d="M473.09,418.42c15.33.4,28.78,9.82,30.93,25.63,5.05,37.14-3.48,84.56.15,122.81-2.64,18.26-14.36,25.8-31.9,27.12-45.98,3.44-96.23-2.7-142.68-.09-15.63-1.58-26.76-11.13-28.71-27.03,3.63-38.25-4.91-85.67.15-122.81,2.15-15.81,15.6-25.22,30.93-25.63-7.43-48.55,28.35-93.89,79.13-88,43.4,5.04,68.04,46.55,62.01,88ZM440.22,418.49v-25.41c0-.63-4.01-10.02-4.86-11.53-13.82-24.72-51.87-24.71-65.69,0-.85,1.52-4.86,10.91-4.86,11.53v25.41h75.41ZM420.55,544.72v-31.97c0-.73,6.19-6.26,7.46-12.2,8.99-41.93-55.82-43.44-51.62-4.37.72,6.71,8.09,15.64,8.09,16.57v31.97h36.07Z"/>
</svg>