<?xml version="1.0" encoding="UTF-8"?>
<svg id="Capa_1" data-name="Capa 1" xmlns="http://www.w3.org/2000/svg" viewBox="0 0 800 800">
  <defs>
    <style>
      .cls-1 {
        fill: #fff;
      }

      .cls-2 {
        fill: #002c41;
      }

      .cls-3 {
        fill: #ffc000;
      }
    </style>
  </defs>
  <path class="cls-2" d="M683.73,403.9c2.85-12.31,4.3-24.91,4.31-37.55,0-95.85-81.28-173.56-181.54-173.56-68.96,0-128.92,36.76-159.67,90.9-19.15-10.06-40.47-15.29-62.11-15.25-71.15,0-128.82,55.14-128.82,123.16,0,1.79.06,3.58.14,5.35h-.42c-60.74,0-109.97,47.07-109.97,105.14s49.24,105.14,109.97,105.14h488.75c60.74,0,109.97-47.08,109.97-105.14.02-44.81-29.31-83.05-70.62-98.19Z"/>
  <ellipse class="cls-1" cx="406.4" cy="502.66" rx="158.07" ry="152.35"/>
  <circle class="cls-3" cx="406.4" cy="502.6" r="134.86"/>
  <path class="cls-1" d="M467.88,441.99c7.79.63,26.72,20.04,17.21,28.91l-106.01,100.4c-6.46,5.2-11.22,6.99-18.29,1.25-11.97-13.74-25.01-26.65-36.8-40.53-6.37-7.5-12.88-12.58-5.2-22.49,5.26-6.78,17.46-17.45,25.74-9.53l24.48,27.09,2.16.51,88.31-82.95c1.99-1.39,6.01-2.84,8.41-2.65Z"/>
</svg>