<?xml version="1.0" encoding="UTF-8"?>
<svg id="Capa_1" data-name="Capa 1" xmlns="http://www.w3.org/2000/svg" viewBox="0 0 800 800">
  <defs>
    <style>
      .cls-1 {
        fill: #fff;
      }

      .cls-2 {
        fill: #002c41;
      }

      .cls-3 {
        fill: #ffc000;
      }
    </style>
  </defs>
  <path class="cls-2" d="M395.64,118.8c7,1.74,14.81,1.5,22.09,2.45,128.71,16.81,233.95,121.69,250.53,250.61.94,7.28.72,15.1,2.45,22.1-.46,11.35.63,22.92,0,34.25-13.86,249.52-320.53,367.65-498.65,189.98C-6.33,440.26,111.6,132.69,361.4,118.8h34.24ZM361.4,272.93v-117.6c-47.96,16.35-72.2,67.07-89.04,111.31l89.04,6.29ZM395.64,155.33v117.6c13.43-1.39,27.08-.41,40.51-1.15,13.39-.74,28.91-1.95,42.24-3.42,1.17-.13,6.31-.98,6.3-1.73-16.86-44.23-41.08-94.95-89.05-111.3ZM283.79,171.33c-36.95,13.85-69.54,37.6-96.46,66.19l-8.54,11.42,59.21,12.44c10.4-32.49,25.78-62.53,45.79-90.05ZM518.98,262.57c10.26-1.25,20.65-2.92,30.78-5.02,3.36-.7,29.61-6.49,29.61-8.03-27.51-34.82-64.64-62.28-106.12-78.2,19.92,27.78,36.27,58.17,45.73,91.24ZM121.72,393.96h94.73c-.42-33.5,6.27-66.38,11.36-99.28l-69.1-15.99c-2.29.08-4.08,4.12-5.23,6.04-18.88,31.66-29.93,72.55-31.77,109.23ZM635.32,393.96c-1.28-40.31-14.94-79.22-34.35-114.11l-71.77,15.95c5.57,32.45,11.64,65.07,11.39,98.16h94.73ZM361.4,307.19l-99.24-6.79c-5.88,30.84-11.49,62.02-11.47,93.56h110.71v-86.77ZM395.64,307.19v86.77h110.71c-.23-31.1-4.96-62.05-11.53-92.36l-99.18,5.59ZM216.45,428.21h-94.73c1.09,29.61,8.8,60.09,20.71,87.18,2.19,4.99,8.57,19.26,11.37,22.87,1.26,1.63,1.68,1.91,3.83,1.92l69.76-15.98c1.86-2.53-3.07-18.47-3.77-22.65-4.07-24.18-6.67-48.82-7.16-73.33ZM361.4,428.21h-110.71c.29,30.76,5.48,61.23,11.46,91.29,32.96-3.22,66.03-6.31,99.25-5.66v-85.63ZM506.35,428.21h-110.71v85.63c32.87-.41,65.65,2.75,98.21,6.37,7.95-29.91,11.66-61.06,12.5-92ZM635.32,428.21h-94.73c-.74,32.62-4.7,65.4-12.56,97.04l72.38,17.2c20.37-34.45,33.38-74,34.91-114.24ZM361.4,548.09l-48.5,1.15-40.54,4c16.52,44.32,40.99,95.29,89.04,111.31v-116.46ZM395.64,548.09v116.46c48.05-15.96,72.07-66.67,89.02-110.74-29.55-3.37-59.23-5.68-89.02-5.72ZM284.92,650.84l-24.56-38.79-23.31-54.29-60.55,12.03c-.53,1.81.59,1.93,1.15,2.84,2.21,3.59,7.26,9.28,10.23,12.6,25.41,28.43,61.21,52.75,97.04,65.61ZM472.12,650.84c42.09-14.99,79.53-43.39,107.26-78.2l-60.44-14.27c-5.72,18.54-13.49,36.43-22.27,53.69l-24.56,38.79Z"/>
  <path class="cls-3" d="M574.27,685.66c-2.9,1.68-6.47,1.68-9.37,0-6.19-3.6-14.93-8.81-27.07-16.29-38.06-23.4-95.92-84.38-106.65-115.11-7.2-20.57-5.03-61.93,1.68-116.82.51-4.17,3.76-7.48,7.92-8.09,44.9-6.68,88.15-20.25,125.08-39.26,2.71-1.4,5.92-1.38,8.62.05,35.6,18.79,78.54,31.24,126.71,39.16,4.1.67,7.27,3.97,7.76,8.1,6.52,54.96,6.28,96.46-.78,116.93-10.72,30.7-68.59,91.68-106.65,115.11-12.27,7.44-21.03,12.65-27.25,16.24Z"/>
  <path class="cls-1" d="M622.16,491.08c11.29.3,21.2,7.23,22.78,18.88,3.72,27.36-2.56,62.29.11,90.47-1.94,13.45-10.58,19.01-23.5,19.97-33.87,2.54-70.89-1.99-105.1-.07-11.52-1.17-19.71-8.2-21.15-19.91,2.67-28.18-3.61-63.11.11-90.47,1.58-11.65,11.49-18.58,22.78-18.88-5.47-35.76,20.88-69.16,58.29-64.82,31.97,3.71,50.12,34.29,45.68,64.82ZM597.95,491.14v-18.72c0-.46-2.96-7.38-3.58-8.5-10.18-18.21-38.21-18.2-48.39,0-.62,1.12-3.58,8.04-3.58,8.5v18.72h55.55ZM583.46,584.12v-23.55c0-.54,4.56-4.61,5.5-8.99,6.62-30.88-41.12-32-38.03-3.22.53,4.94,5.96,11.52,5.96,12.21v23.55h26.57Z"/>
</svg>