<?xml version="1.0" encoding="UTF-8"?>
<svg id="Capa_1" data-name="Capa 1" xmlns="http://www.w3.org/2000/svg" viewBox="0 0 800 800">
  <defs>
    <style>
      .cls-1 {
        fill: #fff;
      }

      .cls-2 {
        fill: #002c41;
      }

      .cls-3 {
        fill: #ffc000;
      }

      .cls-4 {
        fill: #fdfdfd;
      }
    </style>
  </defs>
  <g>
    <rect class="cls-2" x="71.7" y="169.26" width="659.17" height="406.49" rx="33.26" ry="33.26"/>
    <rect class="cls-2" x="317.13" y="565.08" width="160.7" height="82.92"/>
    <rect class="cls-1" x="107.65" y="204.56" width="587.28" height="302.2"/>
    <rect class="cls-2" x="227.75" y="639.25" width="339.46" height="43.07" rx="14.8" ry="14.8"/>
    <path class="cls-4" d="M387.73,545.91c3.04-.67,23.72-.74,26.86-.15,5.32,1,5.89,9.71-.8,10.75-3.64.57-22.78.63-26.06-.12-4.79-1.1-5.41-9.3,0-10.49Z"/>
  </g>
  <path class="cls-3" d="M606.77,600.97c-2.99,1.73-6.68,1.73-9.67,0-6.39-3.71-15.41-9.09-27.94-16.82-39.29-24.16-99.02-87.1-110.09-118.82-7.43-21.23-5.19-63.92,1.73-120.59.53-4.31,3.88-7.72,8.17-8.36,46.35-6.89,90.99-20.9,129.11-40.52,2.8-1.44,6.11-1.42,8.9.05,36.75,19.39,81.07,32.24,130.79,40.42,4.23.7,7.51,4.1,8.01,8.36,6.73,56.73,6.48,99.57-.81,120.7-11.07,31.69-70.8,94.63-110.09,118.82-12.66,7.68-21.71,13.05-28.12,16.77Z"/>
  <g>
    <path class="cls-4" d="M510.38,410.13v-7.24c3.97-9.34,12.81-16.88,20.7-23.15,40.42-32.11,88.4-33.62,132.87-8.11,11.29,6.48,34.14,19.16,18.4,33.82-10.77,10.03-26.86-6.25-37.01-11.63-28.5-15.1-57.19-16.36-85.39.25-8.19,4.82-15.72,9.7-7.16,18.97,5.99,6.49,18.46,14.81,25.79,21.32,7.34,6.51,15.43,13.56,22.49,20.27,6.41,6.1,14.4,12.51,9.96,22.27-2.75,6.03-9.36,10.29-15.93,8.31-9.01-2.72-33.27-27.34-41.91-34.91-11.29-9.9-26.02-20.76-36.21-31.19-2.6-2.67-4.61-5.86-6.6-8.98Z"/>
    <path class="cls-4" d="M612.68,531.04c-5.36.45-15,.5-20.31,0-19.25-1.82-57.25-17.09-70.37-31.49-9.21-10.11-1.48-25.88,11.91-24.19,5.52.7,19,11.88,25.33,15.26,28.49,15.24,58.14,16.8,86.04-.55,2.7-1.68,10.95-7.07,12.44-9.32,1.59-2.39-.5-3.48-2.21-5.11-17.71-16.87-38.47-32.15-55.88-49.21-5.08-4.98-7.97-7.45-7.28-15.25.95-10.7,13.52-15.56,22.17-9.74,22.57,21.55,48.38,41.02,70.74,62.62,8.14,7.87,13.83,13.94,5.09,24.64-17.58,21.51-49.74,40.01-77.65,42.33Z"/>
  </g>
</svg>