<?xml version="1.0" encoding="UTF-8"?>
<svg id="Capa_1" data-name="Capa 1" xmlns="http://www.w3.org/2000/svg" viewBox="0 0 800 800">
  <defs>
    <style>
      .cls-1 {
        fill: #fff;
      }

      .cls-2 {
        stroke: #fff;
        stroke-width: 14px;
      }

      .cls-2, .cls-3, .cls-4 {
        fill: none;
        stroke-miterlimit: 10;
      }

      .cls-3 {
        stroke-width: 23px;
      }

      .cls-3, .cls-4 {
        stroke: #002c41;
      }

      .cls-5 {
        fill: #002c41;
      }

      .cls-4 {
        stroke-width: 22px;
      }

      .cls-6 {
        fill: #ffc000;
      }
    </style>
  </defs>
  <rect class="cls-4" x="101.42" y="210.29" width="567.12" height="408.84" rx="33" ry="33"/>
  <line class="cls-3" x1="102.85" y1="306.32" x2="682.48" y2="306.32"/>
  <g>
    <path class="cls-5" d="M152.94,249.01c3.37-.75,19.74-.67,22.59.55,6.36,2.73,5.56,14.34-2.36,15.57-3.63.56-18.83.53-21.73-.71-6.54-2.79-5.65-13.82,1.5-15.42Z"/>
    <path class="cls-5" d="M193.96,249.01c3.37-.75,19.74-.67,22.59.55,6.36,2.73,5.56,14.34-2.36,15.57-3.63.56-18.83.53-21.73-.71-6.54-2.79-5.65-13.82,1.5-15.42Z"/>
    <path class="cls-5" d="M234.98,249.01c3.37-.75,19.74-.67,22.59.55,6.36,2.73,5.56,14.34-2.36,15.57-3.63.56-18.83.53-21.73-.71-6.54-2.79-5.65-13.82,1.5-15.42Z"/>
  </g>
  <path class="cls-6" d="M578.44,440.6c-2.64,1.53-5.89,1.52-8.52,0-5.63-3.27-13.57-8.01-24.61-14.82-34.61-21.28-87.22-76.72-96.97-104.67-6.55-18.71-4.57-56.31,1.53-106.23.46-3.79,3.42-6.8,7.2-7.36,40.83-6.07,80.15-18.41,113.73-35.7,2.46-1.27,5.39-1.25,7.84.04,32.37,17.08,71.41,28.4,115.21,35.61,3.73.61,6.61,3.61,7.06,7.36,5.93,49.97,5.71,87.71-.71,106.33-9.75,27.92-62.36,83.36-96.97,104.67-11.15,6.77-19.12,11.5-24.77,14.77Z"/>
  <g>
    <circle class="cls-2" cx="571.76" cy="254.04" r="44.57"/>
    <circle class="cls-2" cx="572.69" cy="254.04" r="16.49"/>
    <rect class="cls-2" x="557.73" y="292.33" width="28.06" height="97.9"/>
    <rect class="cls-2" x="575.53" y="317.45" width="32.98" height="23.82"/>
    <rect class="cls-2" x="575.53" y="366.46" width="32.98" height="23.82"/>
  </g>
  <g>
    <circle class="cls-5" cx="571.76" cy="254.04" r="44.57"/>
    <circle class="cls-1" cx="572.69" cy="254.04" r="16.49"/>
    <rect class="cls-5" x="557.73" y="292.33" width="28.06" height="97.9"/>
    <rect class="cls-5" x="575.53" y="317.45" width="32.98" height="23.82"/>
    <rect class="cls-5" x="575.53" y="366.46" width="32.98" height="23.82"/>
  </g>
</svg>