<?xml version="1.0" encoding="UTF-8"?>
<svg id="Capa_1" data-name="Capa 1" xmlns="http://www.w3.org/2000/svg" viewBox="0 0 1920 1080">
  <defs>
    <style>
      .cls-1 {
        opacity: .12;
      }

      .cls-2 {
        fill: #6ca9bc;
      }
    </style>
  </defs>
  <g class="cls-1">
    <polygon class="cls-2" points="281.2 152.55 312.38 122.42 435.87 3.11 404.68 -27.02 281.2 92.29 157.71 -27.02 126.53 3.11 250.01 122.42 281.2 152.55"/>
    <polygon class="cls-2" points="1547.25 122.42 1516.07 92.29 1361.4 241.73 1516.07 391.17 1547.25 361.04 1423.77 241.73 1547.25 122.42"/>
    <polygon class="cls-2" points="1794.23 122.42 1794.23 122.42 1917.71 3.11 1886.53 -27.02 1731.86 122.42 1731.86 122.42 1608.37 241.73 1763.04 391.17 1794.23 361.04 1670.74 241.73 1763.04 152.55 1886.53 271.86 1917.71 241.73 1794.23 122.42 1794.23 122.42"/>
    <polygon class="cls-2" points="188.9 480.34 34.22 330.91 3.04 361.04 157.71 510.47 188.9 480.34"/>
    <g>
      <path class="cls-2" d="M157.71,152.55l92.3,89.18,31.18,30.13,31.18-30.13,92.3-89.18,92.3,89.18,31.18,30.13,92.3,89.18,31.18,30.13,92.3,89.18,154.67,149.44,31.18-30.13-123.49-119.31-31.18-30.13-92.3-89.18,92.3-89.18,31.18-30.13-31.18-30.13-92.3-89.18-31.18-30.13-31.18,30.13-92.3,89.18-92.3-89.18L559.36,3.11l-31.18-30.13-123.49,119.31-31.18,30.13-92.3,89.18-92.3-89.18-31.18-30.13L34.22-27.02,3.04,3.11l123.49,119.31,31.18,30.13ZM651.66,152.55l92.3,89.18-92.3,89.18-92.3-89.18,92.3-89.18Z"/>
      <path class="cls-2" d="M1763.04,211.6l-31.19,30.13,123.49,119.31-92.3,89.18-92.3-89.18h0s-123.49-119.31-123.49-119.31l123.49-119.31h0S1794.23,3.11,1794.23,3.11l-31.19-30.13-123.49,119.31L1547.25,3.11h0s-31.19-30.13-31.19-30.13l-31.19,30.13h0s-92.3,89.18-92.3,89.18L1300.28,3.11h0s-31.19-30.13-31.19-30.13l-31.19,30.13h0s-92.3,89.18-92.3,89.18L1053.31,3.11h0s-31.19-30.13-31.19-30.13l-31.19,30.13h0s-123.49,119.31-123.49,119.31l31.18,30.13,123.49-119.31,92.3,89.18h0s0,0,0,0l-123.49,119.31,123.49,119.31h0s31.19,30.13,31.19,30.13l31.19-30.13h0s92.3-89.18,92.3-89.18l92.3,89.18h0s123.49,119.31,123.49,119.31h0s31.19,30.13,31.19,30.13l31.19-30.13h0s92.3-89.18,92.3-89.18l92.3,89.18h0s154.67,149.44,154.67,149.44l31.19-30.13-123.49-119.31h0s0,0,0,0l123.49-119.31-154.67-149.44ZM1269.09,33.24l92.3,89.18h0s0,0,0,0l-92.3,89.18-92.3-89.18h0s0,0,0,0l92.3-89.18ZM1145.61,330.91l-92.3-89.18,92.3-89.18,92.3,89.18h0s0,0,0,0l-92.3,89.18ZM1516.07,450.21l-92.3-89.18h0s-123.49-119.31-123.49-119.31h0s0,0,0,0l123.49-119.31h0s92.3-89.18,92.3-89.18l92.3,89.18h0s0,0,0,0l-123.49,119.31,123.49,119.31h0s0,0,0,0l-92.3,89.18Z"/>
      <polygon class="cls-2" points="157.71 629.78 281.2 749.09 312.38 718.96 188.9 599.65 281.2 510.47 404.68 629.78 559.36 480.34 528.17 450.22 404.68 330.91 373.5 361.04 496.99 480.34 404.68 569.52 312.38 480.34 281.2 450.22 188.9 361.04 157.71 330.91 34.22 211.6 3.04 241.73 126.53 361.04 157.71 391.17 250.01 480.34 157.71 569.52 157.71 569.52 157.71 569.52 34.22 450.21 3.04 480.34 157.71 629.78 157.71 629.78"/>
      <polygon class="cls-2" points="620.47 599.65 775.15 749.09 806.33 718.96 651.66 569.52 620.47 599.65"/>
      <path class="cls-2" d="M1763.04,569.52h0s-92.3-89.18-92.3-89.18h0s-31.19-30.13-31.19-30.13l-31.19,30.13h0s-92.3,89.18-92.3,89.18l-92.3-89.18h0s-123.49-119.31-123.49-119.31h0s-31.19-30.13-31.19-30.13l-31.19,30.13h0s-92.3,89.18-92.3,89.18l-92.3-89.18h0s-123.49-119.31-123.49-119.31l123.49-119.31-31.19-30.13-123.49,119.31-92.3-89.18L929.82,3.11l-31.18-30.13-123.49,119.31L682.84,3.11l-31.18-30.13-31.18,30.13-123.49,119.31,31.18,30.13,123.49-119.31,92.3,89.18,31.18,30.13,92.3,89.18-92.3,89.18-31.18,30.13,31.18,30.13,92.3,89.18,123.49,119.31h0s0,0,0,0l-92.3,89.18h0s0,0,0,0l-123.49-119.31h0s-92.3-89.18-92.3-89.18l-31.18-30.13-92.3-89.18-31.18-30.13-92.3-89.18-31.18-30.13-31.18,30.13-92.3,89.18-92.3-89.18-31.18-30.13L34.22,92.29,3.04,122.42l123.49,119.31,31.18,30.13,92.3,89.18,31.18,30.13,123.49,119.31,31.18-30.13-123.49-119.31,92.3-89.18,92.3,89.18,31.18,30.13,92.3,89.18-92.3,89.18h0s-123.49,119.31-123.49,119.31h0s0,0,0,0l-123.49-119.31-31.18,30.13,123.49,119.31-92.3,89.18h0s0,0,0,0l-123.49-119.31h0s-123.49-119.31-123.49-119.31l-31.18,30.13,154.67,149.44h0s92.3,89.18,92.3,89.18l-92.3,89.18h0s0,0,0,0l-123.49-119.31-31.18,30.13,123.49,119.31L3.04,1076.89l31.18,30.13,123.49-119.31h0s0,0,0,0l123.49,119.31,123.49-119.31h0s31.18-30.13,31.18-30.13l-31.18-30.13h0s-92.3-89.18-92.3-89.18l92.3-89.18h0s123.49-119.31,123.49-119.31h0s0,0,0,0l92.3,89.18-123.49,119.31,31.18,30.13,123.49-119.31h0s0,0,0,0l123.49,119.31,123.49-119.31h0s0,0,0,0l92.3,89.18h0s31.19,30.13,31.19,30.13l31.19-30.13,92.3-89.18,31.19-30.13-31.19-30.13-92.3-89.18-31.19-30.13h0s-92.3-89.18-92.3-89.18l92.3-89.18,92.3,89.18h0s123.49,119.31,123.49,119.31l31.19,30.13,123.49,119.31,31.19-30.13-123.49-119.31,92.3-89.18,92.3,89.18,31.19,30.13,31.19-30.13,92.3-89.18,92.3,89.18,31.19,30.13,123.49,119.31,31.19-30.13-154.67-149.44ZM373.5,957.58l-92.3,89.18-92.3-89.18,92.3-89.18h0s0,0,0,0l92.3,89.18ZM775.15,808.14l-123.49-119.31h0s-92.3-89.18-92.3-89.18l92.3-89.18,123.49,119.31h0s92.3,89.18,92.3,89.18l-92.3,89.18ZM1114.42,718.96l-92.3,89.18-92.3-89.18,92.3-89.18,92.3,89.18ZM898.63,450.22l-92.3-89.18,92.3-89.18,92.3,89.18h0s0,0,0,0l-92.3,89.18ZM1269.09,569.52h0s0,0,0,0l-92.3-89.18h0s0,0,0,0l92.3-89.18,92.3,89.18h0s0,0,0,0l-92.3,89.18Z"/>
      <polygon class="cls-2" points="188.9 838.27 34.22 688.83 3.04 718.96 157.71 868.4 188.9 838.27"/>
      <path class="cls-2" d="M1763.04,688.83l-92.3-89.18-31.19-30.13-31.19,30.13-92.3,89.18-123.49-119.31-31.19,30.13,123.49,119.31-92.3,89.18-92.3-89.18-31.19-30.13-123.49-119.31h0s-123.49-119.31-123.49-119.31l-31.19,30.13,123.49,119.31,31.19,30.13,92.3,89.18-92.3,89.18-31.19,30.13-92.3,89.18-123.49-119.31-123.49,119.31h0s0,0,0,0l-123.49-119.31-123.49,119.31h0s0,0,0,0l-92.3-89.18,123.49-119.31-31.18-30.13-123.49,119.31h0s-31.18,30.13-31.18,30.13l31.18,30.13h0s92.3,89.18,92.3,89.18l-123.49,119.31,31.18,30.13,123.49-119.31h0s0,0,0,0l123.49,119.31,123.49-119.31h0s123.49-119.31,123.49-119.31l92.3,89.18h0s0,0,0,0l-123.49,119.31,31.18,30.13,123.49-119.31,31.19-30.13,92.3-89.18,92.3,89.18-123.49,119.31,31.19,30.13,123.49-119.31,31.19-30.13-31.19-30.13-92.3-89.18,92.3-89.18,92.3,89.18,31.19,30.13,92.3,89.18,31.19,30.13,123.49,119.31,31.19-30.13-123.49-119.31-31.19-30.13-92.3-89.18,92.3-89.18,31.19-30.13,92.3-89.18,92.3,89.18,31.19,30.13,123.49,119.31,31.19-30.13-123.49-119.31-31.19-30.13ZM651.66,1046.76l-92.3-89.18,92.3-89.18,92.3,89.18-92.3,89.18Z"/>
      <path class="cls-2" d="M1763.04,808.14l-92.3-89.18-31.19-30.13-31.19,30.13-92.3,89.18-31.19,30.13,31.19,30.13,92.3,89.18,31.19,30.13,123.49,119.31,31.19-30.13-123.49-119.31,92.3-89.18,123.49,119.31,31.19-30.13-123.49-119.31-31.19-30.13ZM1639.56,927.45l-92.3-89.18,92.3-89.18,92.3,89.18-92.3,89.18Z"/>
      <polygon class="cls-2" points="898.63 927.45 743.96 1076.89 775.15 1107.02 929.82 957.58 898.63 927.45"/>
      <polygon class="cls-2" points="1145.61 927.45 990.93 1076.89 1022.12 1107.02 1176.79 957.58 1145.61 927.45"/>
      <polygon class="cls-2" points="1392.58 927.45 1269.09 808.14 1237.91 838.27 1361.4 957.58 1237.91 1076.89 1269.09 1107.02 1392.58 987.71 1516.07 1107.02 1547.25 1076.89 1423.77 957.58 1392.58 927.45"/>
      <polygon class="cls-2" points="1731.86 957.58 1886.53 1107.02 1917.71 1076.89 1763.04 927.45 1731.86 957.58"/>
    </g>
  </g>
</svg>