<?xml version="1.0" encoding="UTF-8"?>
<svg id="Capa_1" data-name="Capa 1" xmlns="http://www.w3.org/2000/svg" viewBox="0 0 800 800">
  <defs>
    <style>
      .cls-1 {
        fill: #ffc000;
        stroke: #ffc000;
        stroke-miterlimit: 10;
        stroke-width: 3px;
      }

      .cls-2 {
        fill: #002c41;
      }

      .cls-3 {
        fill: #0d634c;
      }

      .cls-4 {
        fill: #fdfdfd;
      }
    </style>
  </defs>
  <path class="cls-2" d="M528.22,129.18h-66.36M432.59,128.41l-267.33,1.14c-10.09,3.72-16.85,10.85-18.44,21.75-2.97,20.45,1.33,45.36-.42,66.3h-29.74c-11.01,0-26.92,20.02-26.54,31.34v286.97s-26.52,0-26.52,0c-9.28,0-23.1,11.2-26.83,19.79-15.07,34.72,13.08,84.18,51.08,89.39l575.45.21c39.12-2.73,64.6-40.06,60.04-77.86-1.63-13.46-15.23-31.53-29.56-31.53h-26.53l.22-189.48.88-.34c-.1-5.02.2-10.02.35-15.04-.14-.92-.27-1.85-.36-2.77-.36.09-.72.18-1.08.24v-77.97c0-.82-2.82-3.25-.94-5.49-1.5-5.96-3.81-11.52-7.21-16.91-1.9.26-15.65-10.55-19.98-10.55h-27.33c-2.29-1.41-2.22-3.21-2.49-5.54-2.28-19.44,3.45-47.3-.29-65.63-1.1-5.4-11.5-17.25-16.51-17.25h-39.39M451.82,128.72,534.22,166.54c3.67-3.68,26.3-3.47,29.37,2.83,7.67,15.72-24.77,15.57-29.79,10.5-2.59-2.62-2.08-10.83.42-13.33ZM488.37,164.89c9.23-2.15,29.07-2.13,25.04,12.06-2.4,6.91-23.18,6.71-27.8,4.49-6.9-3.31-5.82-14.54,2.76-16.54ZM457.14,164.89c5.91,1.7,8.12,11.2,3.97,15.35-3.56,3.56-26.25,3.94-29.33-2.87-6.35-14.04,16.68-14.98,25.36-12.49ZM162.48,220.01l2.41-2.41h428.43v249.98c0,4.02-6.84,6.17-10.38,5.69l-416.59-1.52c-.85-.66-3.87-6.67-3.87-7.39v-244.36ZM106.22,248.95c0-4.09,9.78-15.27,13.66-15.27h26.53v233.91c0,6.76,9.79,18.6,16.34,20.64l426.6,1.1c6.46.99,20.06-11.95,20.06-16.92v-238.73h26.53c3.34,0,13.66,9.05,13.66,12.06v290.17h-187.29c-7.7,3.58-12.41,28.38-17.94,30.29l-126.84.35c-12.73,2.08-14.08-30.64-24.02-30.64H106.22V248.95ZM704.72,593.45c-5.15,18.93-20.7,31.89-39.86,35.7H92.54c-17.12-1.85-34.04-16.87-39.44-32.9-5.44-16.13-7.3-40.53,14.15-43.85l216.61-.43c8.11,1.5,9.99,28.45,20.93,30.51l148.75-.68c10.64-3.32,10.46-27.97,20.05-29.79l212.23-.1c24.15,1.56,23.97,22.87,18.9,41.54Z"/>
  <path class="cls-2" d="M62.81,543.43l219.48-.5c8.22,1.75,10.13,33.06,21.21,35.45l150.72-.79c10.78-3.86,10.6-32.49,20.31-34.61l215.05-.12c24.47,1.81,24.29,26.57,19.15,48.26-5.21,21.99-20.97,37.05-40.39,41.48H88.43c-17.35-2.15-34.49-19.6-39.96-38.22-5.51-18.74-7.4-47.08,14.34-50.94ZM582.35,578.82c-7.14,1.92-10.43,13.24-4.43,17.36,3.29,2.26,23.31,2.09,25.95-2.05,8.89-13.99-12.38-17.77-21.52-15.31ZM632.84,578.82c-9.25,2.37-9.83,15.46-3.34,17.97,7.47,2.89,33.14.89,24.82-13.44-3.63-6.25-15.62-6.03-21.49-4.52Z"/>
  <circle class="cls-4" cx="583.63" cy="344.48" r="135.16"/>
  <path class="cls-1" d="M776.91,562.48c-3.19,17.75-14.45,28.55-33.06,28.36-12.74-.13-18.58-7.8-25.79-16.61-19.34-23.63-36.47-50.18-55.53-74.15-1.11-2.97,6.79-5.35,7.73-7.34,2.04-4.33-11.02-16-12.73-20.73-74.92,43.45-172.25,13.39-208.93-64.76-33.37-71.1-5.82-157.42,63.51-194.27,103.53-55.04,226.5,24.01,218.82,140.91-2.46,37.42-19.17,70.39-44.82,97.07l13.62,18.6c1.91.86,8.97-7.76,11.89-6.18l63.89,87.59,1.41,11.5ZM555.69,213.03c-97.63,19.82-138.87,137.35-76.08,215.02,59.41,73.48,176.2,61.79,220.74-21.45,53.4-99.82-34.37-215.95-144.66-193.56Z"/>
  <g>
    <path class="cls-3" d="M577.63,416.67c-4.61.17-9.11-2.07-13.04-4.28-3.31-1.87-9.86-8.49-11.22-8.9-8.16-2.42-21.15,2.07-29.82.82-1.45.4-6.99,24.85-9.77,28.41-5.18,6.62-15.14,1.4-14.34-6.42,4.55-8.7,6.22-27.3,11.27-34.64,1.25-1.81,2.84-2.53,4.96-2.86,9.39-1.45,20.03-1.03,29.54-1.19-1.77-5.56-1.01-11.36-1.07-17.13-.31-1.31-24.09-6.87-26.11-6.19-5.18,4.2-11.31,18.15-18.18,18.85-7.53.77-10.16-6.68-7.19-12.88,1.51-3.15,17.39-22.66,20.1-23.51,5.67-1.78,30.1,7.53,31.32,6.23.05-5.26-.52-10.56,1.12-15.63-1.21-1.04-26.67.21-31.69-2.39-1.24-.64-2.67-2.09-3.42-3.29-1.28-2.06-10.57-31.78-10.63-34.13-.2-7.41,9.29-11.66,14.31-5.3,3.11,3.94,8.32,28.01,9.77,28.41,8.3-2.1,22.58,2.95,29.82.82,1.76-.52,7.96-7.59,11.6-9.63,3.55-1.99,8.68-3.57,12.65-4.67v109.5Z"/>
    <path class="cls-3" d="M594.39,309.34c4.73-.54,9.09,2,13.04,4.28,3.18,1.84,9.96,8.53,11.21,8.9,1.52.45,27.31-.58,28.67-1.04,3.22-1.09,6.77-23.11,10.24-27.75,5.01-6.71,15.37-2.96,14.57,5.61-.27,2.85-10,32.86-11.27,34.56-1.41,1.88-3.31,2.95-5.62,3.31-4.01.63-27.42.18-28.43,1.19l1.12,15.63c10.34-.15,27.04-11.17,35.23-3.39,2.37,2.25,13.84,17.25,15.55,20.2,4.85,8.37-2.22,16.35-10.3,12.53-3.28-1.55-13.17-17.88-14.46-18.2-3.41-.33-25.72,4.91-26.07,6.36l-1.07,17.14,29.59,1.14c2.23.39,3.79,2.24,4.88,4.06,1.66,2.76,10.92,31.83,10.98,34.66.17,7.98-9.9,11.21-14.7,4.81-3.2-4.27-6.89-26.64-10.23-27.76-8.19.62-21.04-3.33-28.68-1.04-2.14.64-10.07,8.45-14.15,10.43-3.18,1.54-6.43,2.99-10.1,2.75v-108.38Z"/>
    <path class="cls-3" d="M560.41,264.79c.5.86,15.98,9.19,17.4,9.47,2.03.4,15.29.25,17.18-.27s15.69-8.77,16.3-10.03c3.02-6.19-3.58-21.99,4.76-25.81,3.45-1.58,9.27.94,10.29,4.42.79,2.69.61,26.06-.25,28.81-1.56,4.96-15.88,10.94-20.55,13.72,2.57,5.57,2.21,10.74,2.05,16.77-15.06-5.76-29.16-5.09-44.24,0-1.84-3.91,2.64-13.89,1.98-16.16-.82-2.82-16.05-8.58-18.54-11.52-3.7-4.38-3.63-30.05.26-34.43,3.65-4.12,11.08-1.98,12.66,3.07,1.6,5.09-.82,19.36.69,21.97Z"/>
  </g>
</svg>