<?xml version="1.0" encoding="UTF-8"?>
<svg id="Capa_1" data-name="Capa 1" xmlns="http://www.w3.org/2000/svg" viewBox="0 0 800 800">
  <defs>
    <style>
      .cls-1, .cls-2 {
        fill: #fff;
      }

      .cls-2 {
        stroke: #002c41;
        stroke-miterlimit: 10;
        stroke-width: 39px;
      }

      .cls-3 {
        fill: #002c41;
      }

      .cls-4 {
        fill: #ffc000;
      }
    </style>
  </defs>
  <rect class="cls-2" x="157.95" y="101.67" width="426.2" height="597.43" rx="46.45" ry="46.45"/>
  <rect class="cls-3" x="165.7" y="614.75" width="410.71" height="66.26"/>
  <rect class="cls-3" x="159.57" y="110.67" width="410.71" height="57.06"/>
  <rect class="cls-1" x="318.25" y="649.12" width="93.35" height="30.04" rx="12.19" ry="12.19"/>
  <g>
    <circle class="cls-3" cx="367.9" cy="317.33" r="68.76"/>
    <path class="cls-3" d="M467.45,482.18c8.82,0,15.74-7.77,14.49-16.51-8.01-55.81-56.01-98.71-114.04-98.71s-106.03,42.9-114.04,98.71c-1.25,8.73,5.67,16.51,14.49,16.51h199.1Z"/>
  </g>
  <rect class="cls-1" x="506.28" y="400.38" width="106.42" height="248.74"/>
  <path class="cls-4" d="M647.92,472.14c18.88.5,35.44,12.09,38.09,31.56,6.23,45.75-4.29,104.15.18,151.27-3.25,22.49-17.69,31.78-39.29,33.4-56.63,4.24-118.53-3.32-175.73-.11-19.25-1.95-32.96-13.71-35.37-33.29,4.47-47.12-6.04-105.52.18-151.27,2.65-19.47,19.21-31.07,38.09-31.56-9.15-59.8,34.92-115.64,97.46-108.38,53.45,6.21,83.8,57.34,76.38,108.38ZM607.45,472.23v-31.3c0-.77-4.94-12.34-5.99-14.21-17.02-30.44-63.89-30.43-80.91,0-1.04,1.87-5.99,13.44-5.99,14.21v31.3h92.88ZM583.22,627.71v-39.37c0-.9,7.62-7.71,9.19-15.03,11.07-51.64-68.76-53.5-63.58-5.38.89,8.26,9.97,19.26,9.97,20.41v39.37h44.42Z"/>
</svg>