<?xml version="1.0" encoding="UTF-8"?>
<svg id="Capa_1" data-name="Capa 1" xmlns="http://www.w3.org/2000/svg" viewBox="0 0 800 800">
  <defs>
    <style>
      .cls-1 {
        fill: #fff;
      }

      .cls-2 {
        fill: #002c41;
      }

      .cls-3 {
        stroke: #ffc000;
        stroke-miterlimit: 10;
      }

      .cls-3, .cls-4 {
        fill: #ffc000;
      }

      .cls-5 {
        fill: #fdfdfd;
      }
    </style>
  </defs>
  <path class="cls-3" d="M531.92,162.19c-.96-7.59,9.84-18.2,9.19-24.61-.46-4.56-15.66-20.94-14.42-23.69l26.65-26.3c2.78-.48,18.61,14.84,23.95,14.91,2.71.04,15.14-6.99,19.03-8.67,4.53-1.96,11.84-3.18,15.32-5.37,6.09-3.82,6.11-21.61,7.64-28.57l38.92.14,6.48,27.43c5.56,2.97,12.05,3.88,17.79,6.34,4.29,1.84,13.5,7.81,16.98,8.41,5.81,1,19.4-11.79,25.21-14.61l27.76,26.85c.01,1.82-12.96,16.83-14.12,20.17-2.69,7.74,2.67,11.18,5.31,17.57,1.72,4.16,6.79,20.88,8.44,22.6,3.64,3.79,25.57,3.89,27.64,6.84l.58,37.29c-.49,1.79-22.16,4.22-25.63,5.61-4.8,1.91-7.33,14.91-9.54,20.35-1.99,4.91-7.83,13.11-7.54,17.85.34,5.65,14.74,20.14,13.78,23.9l-26.87,26.11c-3.33-.02-16.13-13.02-21.96-13.79-6.32-.83-10.67,4.7-16.57,5.73v-55.75c0-.59-2.06-2.36-.64-3.97,60.17-69.28-40.17-153.16-98.79-82.81h-54.6Z"/>
  <rect class="cls-2" x="49.7" y="159.24" width="638.59" height="393.79" rx="33.26" ry="33.26"/>
  <rect class="cls-2" x="287.47" y="542.7" width="155.68" height="80.33"/>
  <rect class="cls-1" x="84.53" y="193.44" width="568.94" height="292.77"/>
  <rect class="cls-2" x="200.88" y="614.56" width="328.86" height="41.73" rx="14.8" ry="14.8"/>
  <g>
    <path class="cls-4" d="M342.64,225.71c21.13-21.25,46.99-10.01,61.51,12.26,32.56,49.95,57.07,112.06,88.51,163.45,6.97,33.05-7.67,51.99-39.85,54.58-43.21,3.48-127.69,4.24-170.24-.11-28.95-2.96-47.27-28.01-35.13-56.4l95.19-173.78ZM374.9,248.44c-6.5-4.57-8.5-2.65-12.51,3.18-31.81,46.28-53.67,109.63-85.93,156.9l.36,14.38,178.26,1.11c8.78-.38,12.53-7.13,7.49-14.71l-87.67-160.86Z"/>
    <path class="cls-4" d="M373.6,234.19l94.79,173.91c5.44,8.2,1.39,15.49-8.1,15.9l-192.72-1.2-.39-15.55c34.88-51.1,58.52-119.59,92.91-169.63,4.33-6.3,6.49-8.38,13.52-3.44ZM355.47,358.96c8.45,8.08,26.18,2.95,28.28-10.63,1.51-9.73,1.64-54.69-.37-63.6-3.93-17.42-30.08-15.78-33.24,4.55-1.76,11.3-1.87,62.8,5.32,69.67ZM355.47,408.41c17.68,16.94,40.6-15.19,23.51-30.17-18.64-16.35-39.46,14.89-23.51,30.17Z"/>
  </g>
  <path class="cls-5" d="M355.86,524.14c2.94-.65,22.98-.71,26.02-.14,5.15.97,5.71,9.41-.77,10.42-3.53.55-22.07.61-25.25-.12-4.64-1.06-5.25-9.01,0-10.16Z"/>
</svg>