<?xml version="1.0" encoding="UTF-8"?>
<svg id="Capa_1" data-name="Capa 1" xmlns="http://www.w3.org/2000/svg" viewBox="0 0 800 800">
  <defs>
    <style>
      .cls-1 {
        fill: #fff;
      }

      .cls-2 {
        fill: #002c41;
      }

      .cls-3 {
        fill: #fefefe;
      }
    </style>
  </defs>
  <path class="cls-2" d="M408.76,738.36c-6.21,3.6-13.87,3.59-20.08-.02-13.27-7.71-31.98-18.87-57.99-34.9-81.53-50.13-205.47-180.74-228.45-246.57-15.43-44.06-10.78-132.65,3.6-250.24,1.09-8.94,8.05-16.01,16.96-17.34,96.18-14.3,188.82-43.37,267.93-84.09,5.81-2.99,12.69-2.95,18.46.1,76.26,40.24,168.23,66.91,271.42,83.88,8.78,1.44,15.58,8.51,16.63,17.34,13.97,117.72,13.46,206.63-1.67,250.48-22.97,65.77-146.91,196.38-228.45,246.57-26.28,15.95-45.05,27.09-58.36,34.79Z"/>
  <g>
    <circle class="cls-1" cx="487.6" cy="352.51" r="56.88"/>
    <path class="cls-1" d="M569.95,488.88c7.3,0,13.02-6.43,11.99-13.66-6.62-46.17-46.34-81.65-94.34-81.65s-87.72,35.49-94.34,81.65c-1.04,7.22,4.69,13.66,11.99,13.66h164.7Z"/>
  </g>
  <g>
    <circle class="cls-1" cx="301.69" cy="353.82" r="56.88"/>
    <path class="cls-1" d="M384.04,490.19c7.3,0,13.02-6.43,11.99-13.66-6.62-46.17-46.34-81.65-94.34-81.65s-87.72,35.49-94.34,81.65c-1.04,7.22,4.69,13.66,11.99,13.66h164.7Z"/>
  </g>
  <g>
    <ellipse class="cls-2" cx="398.82" cy="334.83" rx="77.81" ry="74.56"/>
    <path class="cls-2" d="M511.48,507.62c9.98,0,17.82-9.57,16.4-20.31-9.06-68.68-63.39-121.47-129.06-121.47s-119.99,52.79-129.06,121.47c-1.42,10.75,6.42,20.31,16.4,20.31h225.31Z"/>
  </g>
  <g>
    <circle class="cls-1" cx="398.26" cy="335.33" r="65.54"/>
    <path class="cls-1" d="M493.15,492.46c8.41,0,15.01-7.41,13.81-15.73-7.63-53.2-53.39-94.09-108.7-94.09s-101.07,40.89-108.7,94.09c-1.19,8.32,5.4,15.73,13.81,15.73h189.78Z"/>
  </g>
  <path class="cls-3" d="M626.63,485.3c-.35-3.04-3.36-8.74-6.45-8.74h-16.94v-78.26h.8v-18.69h-.8v-132.58c0-7.62-15.15-21.61-22.78-21.61h-18.11l.76-.38h-61.95c-.55.22-1.01.38-1.3.38h-80.87l-39.75.41c-.99,0-1.88-.14-2.67-.41h-78.79c-.11,0-.54-.12-1.1-.31-21.72.49-42.8-.07-65.31.31h-14.19c-7.84,0-22.78,13.89-22.78,21.61v132.58c-.13,6.23.16,12.46,0,18.69v78.26h-16.94c-3.09,0-6.1,5.69-6.45,8.74-1.02,8.76-1.03,32.18,0,40.94.69,5.89,3.75,8.13,9.11,9.58,19.42,5.27,44.72,7.09,65.08,10.87,1.89.35,2.87.06,5.67.57,14.52,1.87,23.87,4.07,38.44,5.62,3.1.3,7.73-.39,8.47-.39h89.28c.54-.11,1.12-.17,1.74-.17,1.05,0,1.98.18,2.81.48,4.72-.4,9.37-.42,14.05-.06.79-.27,1.68-.42,2.66-.42.62,0,1.2.06,1.74.17h6.4c.21-.03.42-.05.63-.07.97-.13,1.83-.09,2.61.07h73.31c1.03-.55,2.56-.27,4.02-.25,9.4.08,18.47.36,27.85.98,2.7-.68,3.56-.83,5.56-1.08,7.88-.98,13.1-3.69,20.15-4.66,1.4-.73.4-.52,1.87-.79,20.46-3.8,45.51-5.56,65.08-10.87,5.36-1.46,8.42-3.69,9.11-9.58,1.03-8.75,1.02-32.17,0-40.94ZM213.09,250.54c0-2.67,6.69-7.54,9.87-6.48h351.71c3.18-1.06,9.87,3.81,9.87,6.48v226.03H213.09v-226.03ZM454.89,495.26v8.18h-112.14v-8.18h112.14ZM607.91,518.62l-90.47,15.24h-238.39s-89.32-15.24-89.32-15.24v-23.36h134.33v19.27c0,.34,2.9,5.26,3.54,5.8,1.99,1.7,3.94,1.62,6.33,1.84,41.52,3.8,88.77-2.97,130.9-.03,3.38,1.07,8.74-5.41,8.74-7.61v-19.27h134.33v23.36Z"/>
</svg>