<?xml version="1.0" encoding="UTF-8"?>
<svg id="Capa_1" data-name="Capa 1" xmlns="http://www.w3.org/2000/svg" viewBox="0 0 900 900">
  <defs>
    <style>
      .cls-1 {
        fill: #ad7c3b;
      }

      .cls-2 {
        fill: #e1aa30;
      }
    </style>
  </defs>
  <path class="cls-2" d="M445.88,51.68c133.35-.99,241.96,48.57,342.48,118.33,33.47,23.23,62.09,54.91,32,98.08-32.45,46.55-70.71,30.19-108.69,3.76-143.91-100.13-293.59-134.96-455.6-39.6-51.71,30.44-68.87,55.37-10.13,100.47,72.41,55.58,137.07,120.9,206.45,180.45,35.63,30.58,59.35,65.37,25.71,106.52-35.64,43.6-73.46,22.35-108.14-8.59-97.47-86.97-194.6-174.37-293.95-259.22-55.02-46.99-51.85-87.09-1.45-135.78C180.27,114.01,300.2,47.54,445.88,51.68Z"/>
  <path class="cls-1" d="M448.14,848.51c-129.24-3.25-248.04-52.34-353.04-136.89-29.31-23.6-32.65-63.91-9.9-90.63,23.72-27.85,60.59-30.71,90.95-6.72,65.16,51.48,137.42,87.57,219.83,101.76,102.06,17.57,192.76-9.61,274.88-70.09,9.5-7,18.28-14.98,27.86-21.87,8.41-6.05,7.13-10-.2-16.48-77-68.14-153.68-136.65-230.46-205.05-13.59-12.11-27.11-24.31-40.81-36.3-27.69-24.22-31.03-63.55-7.62-91.16,22.57-26.62,63.62-28.96,91.17-4.53,72.51,64.32,144.78,128.91,217.14,193.39,37.83,33.72,76.04,67.02,113.35,101.31,28.24,25.95,30.84,62.77,5.5,90.85-72.44,80.27-156.96,142.8-262.29,173.74-42.28,12.42-85.53,17.94-136.36,18.67Z"/>
</svg>