<svg xmlns="http://www.w3.org/2000/svg" xmlns:xlink="http://www.w3.org/1999/xlink" viewBox="0 0 399.18 365.19"><defs><style>.cls-1{isolation:isolate;}.cls-2{fill:#40c6cc;}.cls-2,.cls-4{mix-blend-mode:color-dodge;}.cls-3{fill:#fff;mix-blend-mode:overlay;}.cls-4{fill:url(#Degradado_sin_nombre_157);}.cls-5{fill:#031258;}</style><linearGradient id="Degradado_sin_nombre_157" x1="232.93" y1="238.94" x2="149.53" y2="155.54" gradientUnits="userSpaceOnUse"><stop offset="0" stop-color="#15acff"/><stop offset="0.07" stop-color="#1bb2ff"/><stop offset="0.45" stop-color="#3bcdff"/><stop offset="0.78" stop-color="#4edeff"/><stop offset="1" stop-color="#55e4ff"/></linearGradient></defs><g class="cls-1"><g id="OBJECTS"><path class="cls-2" d="M177.82,161.15V149.4a21.77,21.77,0,0,1,43.53,0v11.75H230V149.4a30.4,30.4,0,0,0-60.79,0v11.75Z"/><path class="cls-3" d="M234.63,165H164.54a9.89,9.89,0,0,0-9.89,9.88v61.41a9.88,9.88,0,0,0,9.89,9.87h70.09a9.88,9.88,0,0,0,9.89-9.87V174.9A9.88,9.88,0,0,0,234.63,165Zm7.89,71.29a7.89,7.89,0,0,1-7.89,7.87H164.54a7.89,7.89,0,0,1-7.89-7.87V174.9a7.89,7.89,0,0,1,7.89-7.88h70.09a7.89,7.89,0,0,1,7.89,7.88Z"/><path class="cls-4" d="M164.54,240.18a3.89,3.89,0,0,1-3.89-3.87V174.9a3.89,3.89,0,0,1,3.89-3.88h70.09a3.89,3.89,0,0,1,3.89,3.88v61.41a3.88,3.88,0,0,1-3.89,3.87Z"/><path class="cls-5" d="M205.55,207a9.16,9.16,0,0,0-2.23,6.11v4.5a3.74,3.74,0,0,1-4,3.73,3.82,3.82,0,0,1-3.49-3.86v-4.13a9.77,9.77,0,0,0-2.29-6.43,7.94,7.94,0,0,1-1.91-6.24,8,8,0,0,1,15.93,1A7.92,7.92,0,0,1,205.55,207Z"/></g></g></svg>