<svg xmlns="http://www.w3.org/2000/svg" xmlns:xlink="http://www.w3.org/1999/xlink" viewBox="0 0 476.47 438.28"><defs><style>.cls-1{isolation:isolate;}.cls-13,.cls-2{fill:#fff;}.cls-10,.cls-11,.cls-12,.cls-14,.cls-15,.cls-16,.cls-17,.cls-18,.cls-19,.cls-2,.cls-20,.cls-21,.cls-22,.cls-3,.cls-5,.cls-6,.cls-7,.cls-8,.cls-9{mix-blend-mode:overlay;}.cls-3{fill:none;stroke:#fff;stroke-miterlimit:10;stroke-width:2.33px;}.cls-4{opacity:0.47;}.cls-10,.cls-11,.cls-5,.cls-6,.cls-7,.cls-8,.cls-9{opacity:0.93;}.cls-5{fill:url(#linear-gradient);}.cls-6{fill:url(#linear-gradient-2);}.cls-7{fill:url(#linear-gradient-3);}.cls-8{fill:url(#linear-gradient-4);}.cls-9{fill:url(#linear-gradient-5);}.cls-10{fill:url(#linear-gradient-6);}.cls-11{fill:url(#linear-gradient-7);}.cls-12,.cls-15,.cls-16{opacity:0.64;}.cls-14{opacity:0.57;fill:url(#linear-gradient-8);}.cls-15{fill:url(#linear-gradient-9);}.cls-16{fill:url(#linear-gradient-10);}.cls-17{opacity:0.54;fill:url(#linear-gradient-11);}.cls-18{opacity:0.55;fill:url(#Degradado_sin_nombre_79);}.cls-19{opacity:0.68;fill:url(#linear-gradient-12);}.cls-20{opacity:0.53;fill:url(#Degradado_sin_nombre_106);}.cls-21{opacity:0.33;fill:url(#linear-gradient-13);}.cls-22{fill:#92dcfd;opacity:0.67;}</style><linearGradient id="linear-gradient" x1="192.22" y1="386.3" x2="209.65" y2="331" gradientUnits="userSpaceOnUse"><stop offset="0" stop-color="#fff"/><stop offset="0.08" stop-color="#fff" stop-opacity="0.88"/><stop offset="0.28" stop-color="#fff" stop-opacity="0.61"/><stop offset="0.46" stop-color="#fff" stop-opacity="0.39"/><stop offset="0.63" stop-color="#fff" stop-opacity="0.22"/><stop offset="0.78" stop-color="#fff" stop-opacity="0.1"/><stop offset="0.91" stop-color="#fff" stop-opacity="0.03"/><stop offset="1" stop-color="#fff" stop-opacity="0"/></linearGradient><linearGradient id="linear-gradient-2" x1="279.79" y1="62.17" x2="267.17" y2="106.65" xlink:href="#linear-gradient"/><linearGradient id="linear-gradient-3" x1="401.94" y1="172.79" x2="347.84" y2="190.83" xlink:href="#linear-gradient"/><linearGradient id="linear-gradient-4" x1="400.04" y1="261.93" x2="351.36" y2="242.09" xlink:href="#linear-gradient"/><linearGradient id="linear-gradient-5" x1="153.2" y1="304.1" x2="114.73" y2="340.16" gradientUnits="userSpaceOnUse"><stop offset="0" stop-color="#fff" stop-opacity="0"/><stop offset="0.09" stop-color="#fff" stop-opacity="0.03"/><stop offset="0.22" stop-color="#fff" stop-opacity="0.1"/><stop offset="0.37" stop-color="#fff" stop-opacity="0.22"/><stop offset="0.54" stop-color="#fff" stop-opacity="0.39"/><stop offset="0.72" stop-color="#fff" stop-opacity="0.61"/><stop offset="0.92" stop-color="#fff" stop-opacity="0.88"/><stop offset="1" stop-color="#fff"/></linearGradient><linearGradient id="linear-gradient-6" x1="352.73" y1="102.81" x2="318.46" y2="137.07" xlink:href="#linear-gradient"/><linearGradient id="linear-gradient-7" x1="131.78" y1="250.66" x2="72.86" y2="260.54" xlink:href="#linear-gradient-5"/><linearGradient id="linear-gradient-8" x1="-26" y1="368.83" x2="48.95" y2="286.45" gradientTransform="translate(145.68 -21.96) rotate(6.56)" gradientUnits="userSpaceOnUse"><stop offset="0" stop-color="#fff" stop-opacity="0"/><stop offset="1" stop-color="#fff"/></linearGradient><linearGradient id="linear-gradient-9" x1="219.36" y1="420.09" x2="163.29" y2="251.02" xlink:href="#linear-gradient-8"/><linearGradient id="linear-gradient-10" x1="198.22" y1="173.49" x2="316.64" y2="109.9" xlink:href="#linear-gradient-8"/><linearGradient id="linear-gradient-11" x1="336.68" y1="252.98" x2="192.12" y2="225.87" xlink:href="#linear-gradient-8"/><linearGradient id="Degradado_sin_nombre_79" x1="-71.57" y1="74.66" x2="309.12" y2="74.66" gradientTransform="translate(145.68 -21.96) rotate(6.56)" gradientUnits="userSpaceOnUse"><stop offset="0" stop-color="#88d3ff" stop-opacity="0"/><stop offset="1" stop-color="#fff"/></linearGradient><linearGradient id="linear-gradient-12" x1="42.97" y1="190.76" x2="-105.02" y2="130.18" xlink:href="#linear-gradient-8"/><linearGradient id="Degradado_sin_nombre_106" x1="233.57" y1="417.74" x2="170.36" y2="322.25" gradientTransform="translate(145.68 -21.96) rotate(6.56)" gradientUnits="userSpaceOnUse"><stop offset="0" stop-color="#a3dcff" stop-opacity="0"/><stop offset="1" stop-color="#fff"/></linearGradient><linearGradient id="linear-gradient-13" x1="55.29" y1="163.41" x2="-23.98" y2="46.46" xlink:href="#linear-gradient-8"/></defs><g class="cls-1"><g id="OBJECTS"><path class="cls-2" d="M238.13,73.09a146.3,146.3,0,1,0,146.3,146.3A146.29,146.29,0,0,0,238.13,73.09Zm0,289.78A143.49,143.49,0,1,1,381.62,219.39,143.48,143.48,0,0,1,238.13,362.87Z"/><path class="cls-3" d="M238.13,41.4a178,178,0,1,0,178,178A178,178,0,0,0,238.13,41.4Z"/><path class="cls-2" d="M393.15,219.76A155,155,0,1,1,236.52,64.38V63.3A156.09,156.09,0,1,0,394.23,219.76Z"/><g class="cls-4"><path class="cls-5" d="M236.89,383.38V336.1a116.22,116.22,0,0,1-57-15.52l-23.64,41A163.14,163.14,0,0,0,236.89,383.38Z"/><path class="cls-6" d="M239.37,55.39v47.29a116,116,0,0,1,55.13,14.48l23.65-41A163.21,163.21,0,0,0,239.37,55.39Z"/><path class="cls-7" d="M379.89,136.86l-41,23.64A116.1,116.1,0,0,1,354.81,216H402.1A163.21,163.21,0,0,0,379.89,136.86Z"/><path class="cls-8" d="M354.85,218.51c0,.29,0,.58,0,.88a116.25,116.25,0,0,1-14.12,55.69l41,23.65a163.3,163.3,0,0,0,20.44-79.34c0-.3,0-.59,0-.88Z"/><path class="cls-9" d="M177.78,319.32a117.32,117.32,0,0,1-41.05-42.08l-41,23.65a164.89,164.89,0,0,0,58.37,59.39Z"/><path class="cls-10" d="M296.66,118.38a117.36,117.36,0,0,1,41,40l41-23.66a164.75,164.75,0,0,0-58.32-57.3Z"/><path class="cls-11" d="M135.52,275.08a116.25,116.25,0,0,1-14.12-55.69c0-.3,0-.59,0-.88H74.13c0,.29,0,.58,0,.88a163.3,163.3,0,0,0,20.44,79.34Z"/></g><g class="cls-12"><path class="cls-13" d="M230.28,67.67a151.37,151.37,0,0,0-93.87,38.9l19.66,19.66a123.65,123.65,0,0,1,74.21-30.74Z"/><path class="cls-13" d="M125.31,117.67a151.25,151.25,0,0,0-38.89,93.87h27.82A123.6,123.6,0,0,1,145,137.33Z"/><path class="cls-13" d="M86.42,227.24a151.3,151.3,0,0,0,38.89,93.87L145,301.45a123.65,123.65,0,0,1-30.74-74.21Z"/><path class="cls-13" d="M339.85,106.57A151.32,151.32,0,0,0,246,67.67V95.49a123.6,123.6,0,0,1,74.21,30.74Z"/><path class="cls-13" d="M351,321.11a151.37,151.37,0,0,0,38.9-93.87H362a123.65,123.65,0,0,1-30.74,74.21Z"/><path class="cls-13" d="M136.41,332.21a151.3,151.3,0,0,0,93.87,38.89V343.28a123.65,123.65,0,0,1-74.21-30.74Z"/><path class="cls-13" d="M389.85,211.54A151.32,151.32,0,0,0,351,117.67l-19.66,19.66A123.6,123.6,0,0,1,362,211.54Z"/><path class="cls-13" d="M246,371.1a151.25,151.25,0,0,0,93.87-38.89l-19.66-19.67A123.6,123.6,0,0,1,246,343.28Z"/></g><path class="cls-14" d="M165.36,311l-40.49,54.6a189.76,189.76,0,0,1-61.25-77.17L126.93,261A115.13,115.13,0,0,0,165.36,311Z"/><path class="cls-15" d="M391.11,326.09a190.94,190.94,0,0,1-23.66,26.39q-5.26,4.89-10.88,9.33a191.28,191.28,0,0,1-42.64,25.54A189.07,189.07,0,0,1,266.17,401c-4.41.66-8.88,1.15-13.37,1.49-3.7.29-7.42.46-11.16.53a189.05,189.05,0,0,1-25.16-1.22l7.91-68.73A114.88,114.88,0,0,0,330,280.8Z"/><path class="cls-16" d="M426.53,184.8l-80.45,11.93a114.57,114.57,0,0,0-23.89-50.63l65.14-51.7A191.18,191.18,0,0,1,412.86,137,189.15,189.15,0,0,1,426.53,184.8Z"/><path class="cls-17" d="M427.33,234.48a190.65,190.65,0,0,1-12.06,48.2L342.69,254a115.1,115.1,0,0,0,4.76-22.08q.38-3.3.57-6.57Z"/><path class="cls-18" d="M260,23.63l-9.41,81.82c-1.3-.2-2.61-.37-3.92-.53a116.08,116.08,0,0,0-18-.65c-2.16.08-4.3.23-6.44.45l-11.9-80.28c3.89-.58,7.81-1.05,11.76-1.37A189.71,189.71,0,0,1,260,23.63Z"/><path class="cls-19" d="M168.28,124.59a114.44,114.44,0,0,0-47.67,74.6L49.14,191a190.13,190.13,0,0,1,12.07-48.2,186.18,186.18,0,0,1,11.6-24.19,191.8,191.8,0,0,1,47.1-54.94Z"/><path class="cls-20" d="M383.5,372.48a265.88,265.88,0,0,1-59.68,36.27,269.17,269.17,0,0,1-32.51,11.85,266.73,266.73,0,0,1-34.54,7.68l-4-25.77-10.68-69.36a114.62,114.62,0,0,0,78.2-39.39l47.13,58.72Z"/><path class="cls-21" d="M228.65,104.27c-2.16.08-4.3.23-6.44.45a114.9,114.9,0,0,0-83.4,49.54l-66-35.68L50.88,106.73S103,7.72,221.06,10.58l1,12.49Z"/><path class="cls-22" d="M328.48,232.37A94.45,94.45,0,1,1,225.85,122.08V104.84A111.58,111.58,0,1,0,345.94,232.37Z"/></g></g></svg>